<?xml version="1.0" encoding="UTF-8"?>
<svg version="1.1" xmlns="http://www.w3.org/2000/svg" width="690" height="744">
<path d="M0 0 C0.85494049 0.00060425 1.70988098 0.0012085 2.59072876 0.00183105 C16.85136202 0.02905773 30.94999307 0.52106565 45.125 2.1875 C46.20652344 2.31108887 47.28804688 2.43467773 48.40234375 2.56201172 C83.63784116 6.72428053 118.80823043 15.44512036 150.80371094 31.05761719 C153.17342967 32.21107305 155.55794737 33.32890492 157.9453125 34.4453125 C178.12749132 44.03972405 196.74238179 56.18660003 214.125 70.1875 C215.58873047 71.33412109 215.58873047 71.33412109 217.08203125 72.50390625 C235.53902642 87.17762276 253.87468317 104.39360388 268.125 123.1875 C269.13396317 124.46989492 270.14451305 125.75104231 271.15625 127.03125 C286.2509983 146.26891103 298.71309716 167.07531498 309.125 189.1875 C309.46998535 189.91904297 309.8149707 190.65058594 310.17041016 191.40429688 C321.32834674 215.42421705 329.58884202 241.3106749 335.125 267.1875 C335.45274414 268.71093018 335.45274414 268.71093018 335.78710938 270.26513672 C338.71905476 284.21337249 340.75642899 298.22357296 342.375 312.375 C342.49962616 313.45970078 342.49962616 313.45970078 342.62677002 314.5663147 C344.83394885 334.03292194 345.36575105 353.35513031 345.375 372.9375 C345.37601212 374.8663504 345.37601212 374.8663504 345.37704468 376.83416748 C345.35965443 397.75869617 344.75714501 418.42216607 342.125 439.1875 C342.04014343 439.86224365 341.95528687 440.5369873 341.86785889 441.23217773 C338.56948348 467.11374149 333.52240703 493.06701722 324.96142578 517.75830078 C324.04033328 520.43339428 323.16060407 523.12078416 322.27734375 525.80859375 C313.79231921 551.02899255 302.01156637 575.12410455 287.125 597.1875 C286.67817871 597.84975586 286.23135742 598.51201172 285.77099609 599.19433594 C282.99020706 603.27030139 280.09577524 607.24845464 277.125 611.1875 C276.70573242 611.74953125 276.28646484 612.3115625 275.85449219 612.890625 C265.51861306 626.68215117 253.54942064 638.83566754 241.4375 651.0625 C240.5830127 651.93011963 239.72852539 652.79773926 238.84814453 653.69165039 C232.9219317 659.62524685 226.68274934 664.96717386 220.125 670.1875 C218.88180401 671.2120465 217.64059641 672.23901577 216.40234375 673.26953125 C169.4202916 711.88955149 111.23965371 733.50917065 51.375 741.375 C50.10825439 741.54217529 48.84150879 741.70935059 47.53637695 741.8815918 C31.76273717 743.86389253 16.12553517 744.39487294 0.25 744.375 C-1.09777527 744.37409363 -1.09777527 744.37409363 -2.47277832 744.37316895 C-17.35123163 744.34613759 -32.08051633 743.87987488 -46.875 742.1875 C-48.01227539 742.05859375 -49.14955078 741.9296875 -50.32128906 741.796875 C-129.05613836 732.55157603 -204.6218723 700.00917097 -255.06079102 637.06054688 C-257.36861483 634.13023681 -259.62429501 631.16176255 -261.875 628.1875 C-262.31134766 627.61870117 -262.74769531 627.04990234 -263.19726562 626.46386719 C-305.16071692 571.6627082 -331.93024322 506.31542394 -341.875 438.1875 C-342.04161133 437.07342773 -342.20822266 435.95935547 -342.37988281 434.81152344 C-345.06336192 415.92716426 -345.1600156 397.04334972 -345.1875 378 C-345.19301376 376.17693832 -345.19301376 376.17693832 -345.19863892 374.31704712 C-345.23501163 351.25382828 -344.07730713 328.26010143 -341.125 305.375 C-341.04229858 304.72726624 -340.95959717 304.07953247 -340.87438965 303.41217041 C-335.78785983 263.96017332 -326.031425 225.57543517 -309.875 189.1875 C-309.53774902 188.42115234 -309.20049805 187.65480469 -308.85302734 186.86523438 C-296.69868588 159.47614407 -280.18002148 134.63912232 -259.99609375 112.53125 C-258.05668497 110.38825688 -256.18170701 108.20405362 -254.3125 106 C-251.39278664 102.64199249 -248.22374192 99.76743341 -244.83203125 96.89453125 C-242.97519075 95.27489193 -241.27102508 93.58626709 -239.5625 91.8125 C-235.93418435 88.13526324 -232.00879627 84.90887312 -227.98046875 81.6796875 C-225.85695059 79.97553078 -223.7594085 78.25868605 -221.67578125 76.5078125 C-159.76522586 25.0044055 -79.8617174 -0.10503386 0 0 Z M-165.875 146.1875 C-168.25408063 148.58057522 -170.63091677 150.95888683 -173.09375 153.265625 C-225.77842566 203.42432306 -241.65111266 282.69384125 -244.875 352.1875 C-244.93284668 353.36554199 -244.99069336 354.54358398 -245.05029297 355.75732422 C-248.8231059 432.88168113 -237.27611911 514.70749712 -186.875 576.1875 C-186.45379883 576.71021484 -186.03259766 577.23292969 -185.59863281 577.77148438 C-172.59580452 593.84806104 -157.81917388 609.25567193 -140.875 621.1875 C-140.28444824 621.60644531 -139.69389648 622.02539062 -139.08544922 622.45703125 C-98.12753873 651.24825689 -50.82171459 663.7006734 -1.125 663.5 C-0.15944183 663.49784485 0.80611633 663.4956897 1.80093384 663.49346924 C16.08653848 663.44237486 30.09145601 663.10835724 44.125 660.1875 C45.1346582 659.97818848 46.14431641 659.76887695 47.18457031 659.55322266 C68.2450014 655.0539198 87.73521054 648.53113043 107.125 639.1875 C108.1159668 638.71256104 108.1159668 638.71256104 109.12695312 638.22802734 C129.83088047 628.15363998 148.85698361 614.09091758 165.6796875 598.4453125 C167.78382391 596.50251563 169.93082946 594.65133928 172.125 592.8125 C186.24916966 580.43949772 197.98847523 564.50983183 207.125 548.1875 C207.57343262 547.39021484 208.02186523 546.59292969 208.48388672 545.77148438 C216.48322921 531.39218491 222.92246922 516.79509234 228.125 501.1875 C228.44307617 500.23327148 228.76115234 499.27904297 229.08886719 498.29589844 C239.82346595 465.37421885 244.48652038 430.45701497 245.6875 395.9375 C245.7292334 394.74439209 245.7709668 393.55128418 245.81396484 392.32202148 C246.10442186 383.6017906 246.29953363 374.91232489 246.125 366.1875 C246.10614746 364.81392334 246.10614746 364.81392334 246.08691406 363.41259766 C245.16646499 304.15634036 235.94855579 239.30844787 202.125 189.1875 C201.57706787 188.36789795 201.57706787 188.36789795 201.01806641 187.53173828 C189.89820576 171.01416093 176.53735452 155.87101385 160.94921875 143.45703125 C159.06982353 141.94675653 157.21755104 140.4020828 155.39453125 138.82421875 C131.36153212 118.03981813 102.31893102 102.73176976 72.125 93.1875 C71.00641602 92.83196045 71.00641602 92.83196045 69.86523438 92.46923828 C51.73716458 86.81531446 32.3655396 83.09567212 13.33984375 82.984375 C12.52967804 82.97731537 11.71951233 82.97025574 10.88479614 82.96298218 C-51.6430267 82.54241991 -120.97673902 99.70133141 -165.875 146.1875 Z " fill="#623D93" transform="translate(344.875,-0.1875)"/>
<path d="M0 0 C33 -0.04125 66 -0.0825 100 -0.125 C110.37953125 -0.14320801 120.7590625 -0.16141602 131.453125 -0.18017578 C144.23046875 -0.18920898 144.23046875 -0.18920898 150.23193359 -0.19088745 C154.38006781 -0.1927338 158.52814966 -0.20016022 162.67626953 -0.21115112 C216.59200541 -0.34774169 216.59200541 -0.34774169 239.0625 3.8125 C240.47885742 4.07015137 240.47885742 4.07015137 241.92382812 4.33300781 C267.16405071 9.14846325 289.33955332 21.75121841 304.6875 42.75 C312.60996338 54.80427443 318.11080895 67.13391414 322 81 C322.51240234 82.78664062 322.51240234 82.78664062 323.03515625 84.609375 C329.74946342 113.2154465 325.23928039 144.80875094 310.7578125 170.24609375 C293.5534748 197.19955614 267.25724483 212.55003466 236.41162109 219.59082031 C231.62998003 220.55806002 226.83229863 221.33500478 222 222 C223.06476563 222.66644531 224.12953125 223.33289063 225.2265625 224.01953125 C246.07466051 237.19730782 263.24714783 252.15768805 278 272 C278.87730232 273.15908269 279.75490768 274.31793608 280.6328125 275.4765625 C298.34110106 299.05193787 313.50442214 324.49069048 328.90917969 349.59326172 C331.70974616 354.15644534 334.5127295 358.71813578 337.31738281 363.27880859 C338.67438288 365.48562431 340.03052223 367.69296956 341.38574219 369.90087891 C344.3028014 374.64749078 347.23123183 379.38433867 350.2265625 384.08203125 C350.70174316 384.82952637 351.17692383 385.57702148 351.66650391 386.34716797 C352.52473876 387.6925006 353.38856825 389.03428901 354.25927734 390.37158203 C357 394.66917909 357 394.66917909 357 398 C344.73723764 398.77043949 332.48034889 399.35361153 320.19817924 399.70980167 C314.4908514 399.88096471 308.80023121 400.11190989 303.10253906 400.48950195 C265.614722 402.90462299 265.614722 402.90462299 256.12072754 395.29901123 C246.37312474 385.81011902 240.98793841 371.80156759 235.6098938 359.56863403 C226.68514382 339.60333382 226.68514382 339.60333382 211 325 C192.50210858 318.18892149 170.04728497 320.67143021 150.71020305 321.673522 C141.53635995 322.13940454 132.35715567 322.27776264 123.1738615 322.43869209 C108.76479404 322.69950577 94.40839188 323.38246847 80 324 C80 348.42 80 372.84 80 398 C53.6 398 27.2 398 0 398 C0 266.66 0 135.32 0 0 Z M80 68 C80 101 80 134 80 168 C99.2121875 168.0309375 99.2121875 168.0309375 118.8125 168.0625 C122.79546143 168.071604 126.77842285 168.08070801 130.88208008 168.09008789 C182.83827855 171.47521341 182.83827855 171.47521341 228.1875 152.89453125 C237.69398771 142.74146258 241.59105396 131.01588726 241.4375 117.1875 C241.42992676 116.22626221 241.42235352 115.26502441 241.41455078 114.2746582 C241.12668032 101.79641926 237.83208102 91.42950515 229.2578125 82.10546875 C215.38774989 68.8972556 197.69148054 67.82118778 179.56176758 67.88647461 C178.47751495 67.88632858 177.39326233 67.88618256 176.27615356 67.8860321 C172.7322583 67.88672254 169.1884172 67.89447381 165.64453125 67.90234375 C163.17160572 67.90421102 160.69867982 67.90563346 158.22575378 67.90663147 C151.74692751 67.9104323 145.26812399 67.92024158 138.78930664 67.93133545 C130.99976842 67.94341021 123.2102221 67.94796341 115.42067719 67.95378876 C103.61376901 67.9634548 91.80691067 67.98262838 80 68 Z M80 232 C80 249.16 80 266.32 80 284 C114.32 284 148.64 284 184 284 C163.06693169 251.97135638 163.06693169 251.97135638 130.38916016 234.13061523 C119.33927038 231.9547981 108.67057911 231.63984011 97.4375 231.8125 C91.683125 231.874375 85.92875 231.93625 80 232 Z " fill="#623C93" transform="translate(180,163)"/>
<path d="M0 0 C3.0625 0.14583333 6.125 0.29166667 9.1875 0.4375 C10.58585083 0.50408813 10.58585083 0.50408813 12.01245117 0.57202148 C20.72314453 0.98681641 29.43383789 1.40161133 38.14453125 1.81640625 C40.05298828 1.90728516 40.05298828 1.90728516 42 2 C42.27714844 3.13179687 42.55429687 4.26359375 42.83984375 5.4296875 C43.20560488 6.91148902 43.57149711 8.39325818 43.9375 9.875 C44.11990234 10.62136719 44.30230469 11.36773438 44.49023438 12.13671875 C45.45209692 16.17039125 45.45209692 16.17039125 47 20 C48.65 14.06 50.3 8.12 52 2 C55.96 2 59.92 2 64 2 C64.34933594 3.14339844 64.69867188 4.28679688 65.05859375 5.46484375 C65.51806463 6.95577988 65.97770901 8.44666255 66.4375 9.9375 C66.66759766 10.69224609 66.89769531 11.44699219 67.13476562 12.22460938 C68.03001736 15.90208452 68.03001736 15.90208452 70 19 C70.99 13.06 71.98 7.12 73 1 C76.96 1 80.92 1 85 1 C84.23554346 5.43868246 83.46363448 9.87585734 82.6875 14.3125 C82.47416016 15.55580078 82.26082031 16.79910156 82.04101562 18.08007812 C80.73119588 25.52845605 79.11134388 32.73722473 77 40 C73.04 40 69.08 40 65 40 C62.69 32.74 60.38 25.48 58 18 C56.02 25.59 54.04 33.18 52 41 C48.04 41 44.08 41 40 41 C37.36 30.44 34.72 19.88 32 9 C31.67 9.33 31.34 9.66 31 10 C24.31276263 10.4593254 17.63623525 9.79070037 11 9 C11 10.98 11 12.96 11 15 C16.94 15.33 22.88 15.66 29 16 C29 18.64 29 21.28 29 24 C22.23405981 24.11381955 15.71162938 23.88021369 9 23 C9 25.64 9 28.28 9 31 C15.6 31.33 22.2 31.66 29 32 C29 34.97 29 37.94 29 41 C18.32480925 40.43114063 7.66038445 39.80552744 -3 39 C-3.14576232 31.32750313 -2.69949168 23.76890015 -2.0625 16.125 C-1.97548828 15.01125 -1.88847656 13.8975 -1.79882812 12.75 C-1.07105617 3.80110046 -1.07105617 3.80110046 0 0 Z " fill="#FAFAFA" transform="translate(305,683)"/>
<path d="M0 0 C4.29488468 2.43214113 8.12443836 5.2774715 12 8.3125 C12.60328125 8.77333984 13.2065625 9.23417969 13.828125 9.70898438 C23.4246081 17.20884453 23.4246081 17.20884453 24.4453125 22.16015625 C23.59645443 27.20154502 22.07043317 29.64189263 18 33 C17.67 33.33 17.34 33.66 17 34 C15.48071962 34.07179964 13.95832518 34.08392007 12.4375 34.0625 C11.61121094 34.05347656 10.78492188 34.04445313 9.93359375 34.03515625 C9.29550781 34.02355469 8.65742188 34.01195312 8 34 C8.495 34.495 8.495 34.495 9 35 C9.17635025 39.14423096 8.91992217 43.12932189 8.4921875 47.25390625 C8.40050293 48.14537354 8.30881836 49.03684082 8.21435547 49.95532227 C8.14361816 50.63006592 8.07288086 51.30480957 8 52 C8.48243164 51.62302979 8.96486328 51.24605957 9.46191406 50.85766602 C14.19380432 47.16249399 18.93577641 43.480629 23.68261719 39.8046875 C25.70851883 38.22699418 27.72021406 36.63365807 29.7265625 35.03125 C30.77578293 34.20800347 31.82524102 33.38505969 32.875 32.5625 C33.77992188 31.84191406 34.68484375 31.12132812 35.6171875 30.37890625 C38 29 38 29 40.0546875 29.1171875 C42.25055012 30.11370347 44.22769221 31.24799994 46.25 32.5625 C46.95640625 33.01753906 47.6628125 33.47257813 48.390625 33.94140625 C49.18726563 34.46541016 49.18726563 34.46541016 50 35 C48.87492692 43.59757341 47.24178164 52.07171196 45.5 60.5625 C45.28641846 61.62146484 45.07283691 62.68042969 44.8527832 63.77148438 C44.53893677 65.2787207 44.53893677 65.2787207 44.21875 66.81640625 C44.03248047 67.71818604 43.84621094 68.61996582 43.65429688 69.54907227 C43.02271266 71.91492073 42.1787819 73.86143294 41 76 C37.76720953 74.24890516 34.73385329 72.47296868 32 70 C32.020625 68.845 32.04125 67.69 32.0625 66.5 C32.041875 65.345 32.02125 64.19 32 63 C28.91969782 60.5017157 25.55615998 58.73362799 22 57 C21.278125 57.53625 20.55625 58.0725 19.8125 58.625 C17 60 17 60 14.4609375 59.359375 C10.4499795 57.1437982 6.73875241 54.64510375 3 52 C2.28328125 51.54625 1.5665625 51.0925 0.828125 50.625 C-1.19616257 49.19990155 -2.61932289 48.05954824 -4 46 C-4.23690192 43.38513916 -3.93862258 41.19366482 -3.46875 38.61328125 C-2.77023624 34.71906706 -2.93632319 30.9479622 -3 27 C-6.67056937 28.47797262 -8.41085783 30.47615477 -10.75 33.625 C-11.36359375 34.44226563 -11.9771875 35.25953125 -12.609375 36.1015625 C-13.06828125 36.72804688 -13.5271875 37.35453125 -14 38 C-16.97 36.02 -19.94 34.04 -23 32 C-21.89361363 27.57445451 -19.93380062 25.06409376 -17.125 21.625 C-16.1313104 20.385577 -15.13782725 19.14598846 -14.14453125 17.90625 C-13.62971191 17.26816406 -13.11489258 16.63007812 -12.58447266 15.97265625 C-9.9656471 12.71223861 -7.39108543 9.41726311 -4.8125 6.125 C-3.88171686 4.93994199 -2.95074654 3.75503096 -2.01953125 2.5703125 C-1.35308594 1.72210937 -0.68664062 0.87390625 0 0 Z " fill="#FAFAFA" transform="translate(160,612)"/>
<path d="M0 0 C-0.00954712 1.14045776 -0.00954712 1.14045776 -0.01928711 2.30395508 C-0.02806591 5.80776034 0.01690522 9.30899676 0.0625 12.8125 C0.04606445 14.6059082 0.04606445 14.6059082 0.02929688 16.43554688 C0.18288897 24.48816104 1.65605896 29.29201673 6.59936523 35.7019043 C8 38 8 38 7.88696289 40.15942383 C6.3851457 43.27591153 3.97937361 44.42268456 1 46 C-1.02734375 45.921875 -1.02734375 45.921875 -3 45 C-4.359375 42.77734375 -4.359375 42.77734375 -5.75 39.9375 C-11.20156632 30.79600887 -21.4989375 27.71539604 -31 24 C-25.25252476 38.69890464 -25.25252476 38.69890464 -18.8125 53.1015625 C-18 55 -18 55 -18 57 C-19.3846168 57.73001583 -20.78337645 58.43324582 -22.1875 59.125 C-23.35345703 59.71667969 -23.35345703 59.71667969 -24.54296875 60.3203125 C-27.87569559 61.2422433 -28.94475585 60.61541645 -32 59 C-34.8110454 57.35258317 -37.56596705 55.62747947 -40.3125 53.875 C-41.05306641 53.40707031 -41.79363281 52.93914063 -42.55664062 52.45703125 C-44.37341968 51.30835804 -46.18703037 50.15467631 -48 49 C-46.91185239 53.67326139 -44.91668854 57.85193086 -42.9609375 62.22265625 C-42 65 -42 65 -43 68 C-45.06640625 68.94921875 -45.06640625 68.94921875 -47.5625 69.6875 C-48.38878906 69.93886719 -49.21507812 70.19023438 -50.06640625 70.44921875 C-50.70449219 70.63097656 -51.34257812 70.81273437 -52 71 C-55.99872056 62.64017482 -59.82366444 54.22152384 -63.4375 45.6875 C-63.79134766 44.85758545 -64.14519531 44.0276709 -64.50976562 43.17260742 C-64.83525391 42.39763916 -65.16074219 41.6226709 -65.49609375 40.82421875 C-65.78669678 40.13416748 -66.0772998 39.44411621 -66.37670898 38.7331543 C-67 37 -67 37 -67 35 C-65.75823305 34.29773859 -64.50614401 33.61370891 -63.25 32.9375 C-62.55390625 32.55464844 -61.8578125 32.17179688 -61.140625 31.77734375 C-58.51430086 30.82362385 -57.62344689 31.12313492 -55 32 C-53.45390482 32.85461081 -51.93977814 33.76838565 -50.453125 34.72265625 C-49.18662109 35.52993164 -49.18662109 35.52993164 -47.89453125 36.35351562 C-46.58548828 37.19946289 -46.58548828 37.19946289 -45.25 38.0625 C-44.36183594 38.63033203 -43.47367187 39.19816406 -42.55859375 39.78320312 C-40.36925688 41.18390789 -38.18420914 42.59131259 -36 44 C-39.96 34.595 -39.96 34.595 -44 25 C-36.1875 21.125 -36.1875 21.125 -33.73901367 19.91455078 C-33.09681885 19.59470215 -32.45462402 19.27485352 -31.79296875 18.9453125 C-31.1383667 18.62062988 -30.48376465 18.29594727 -29.80932617 17.96142578 C-27.75347202 16.90744328 -27.75347202 16.90744328 -25 15 C-21.13332278 15.352682 -18.10458396 16.78561634 -14.6875 18.5625 C-13.80449219 19.01753906 -12.92148437 19.47257813 -12.01171875 19.94140625 C-11.34785156 20.29074219 -10.68398438 20.64007812 -10 21 C-10.15662109 19.48019531 -10.15662109 19.48019531 -10.31640625 17.9296875 C-11.08147576 7.28103378 -11.08147576 7.28103378 -8.03125 3.66796875 C-2.39096715 0 -2.39096715 0 0 0 Z " fill="#FAFAFA" transform="translate(505,634)"/>
<path d="M0 0 C4.91533165 2.71270662 8.14904609 5.79809219 10.6875 10.875 C11.66795709 18.94276117 10.35870813 25.19517238 5.6875 31.875 C1.17311599 36.83276101 -2.302448 38.56361531 -8.9375 39.25 C-15.15470282 39.14560667 -20.6899253 36.24856256 -25.24609375 32.125 C-29.36661791 27.54005226 -30.80532606 23.57978056 -30.72265625 17.296875 C-29.74869115 11.54584299 -26.83558819 5.38598705 -22.68359375 1.25390625 C-15.69290324 -3.52919778 -7.49010218 -3.49837108 0 0 Z " fill="#FAFAFA" transform="translate(239.3125,661.125)"/>
<path d="M0 0 C1.52392578 1.51391602 1.52392578 1.51391602 2.8203125 3.69140625 C3.32336914 4.51398926 3.82642578 5.33657227 4.34472656 6.18408203 C4.8909668 7.11333496 5.43720703 8.04258789 6 9 C6.62100586 10.00788574 7.24201172 11.01577148 7.88183594 12.05419922 C9.90276745 15.33510648 11.89161451 18.6337794 13.875 21.9375 C14.57022518 23.08403733 15.26553717 24.23052202 15.9609375 25.37695312 C16.93546875 26.99827148 16.93546875 26.99827148 17.9296875 28.65234375 C18.51991699 29.63195068 19.11014648 30.61155762 19.71826172 31.62084961 C21 34 21 34 21 36 C14.565 36.495 14.565 36.495 8 37 C7.34 35.68 6.68 34.36 6 33 C1.38 33.33 -3.24 33.66 -8 34 C-8 36.31 -8 38.62 -8 41 C-12.26616316 42.13764351 -15.56486311 43 -20 43 C-18.29392114 29.16857498 -16.09164203 15.59067004 -13 2 C-3.88132308 -0.47286154 -3.88132308 -0.47286154 0 0 Z " fill="#FAFAFA" transform="translate(411,678)"/>
<path d="M0 0 C4.06066898 2.26801822 7.98324429 4.71879627 11.89453125 7.234375 C13.15680542 8.0392334 13.15680542 8.0392334 14.44458008 8.86035156 C16.11895686 9.92842465 17.79224265 10.99821027 19.46435547 12.06982422 C22.45666662 13.98715979 25.45682562 15.89192044 28.45703125 17.796875 C29.89476055 18.71318199 31.33237085 19.629676 32.76953125 20.546875 C31.68853649 23.78985929 31.11326509 24.36300026 28.45703125 26.296875 C27.86277344 26.74546875 27.26851562 27.1940625 26.65625 27.65625 C24.22143354 28.80560435 23.27217362 28.41820116 20.76953125 27.546875 C20.1146875 27.30066406 19.45984375 27.05445313 18.78515625 26.80078125 C16.65700217 26.328485 16.65700217 26.328485 14.62890625 27.76171875 C13.9328125 28.33019531 13.23671875 28.89867187 12.51953125 29.484375 C11.45992187 30.33322266 11.45992187 30.33322266 10.37890625 31.19921875 C9.8478125 31.64394531 9.31671875 32.08867188 8.76953125 32.546875 C9.09953125 35.186875 9.42953125 37.826875 9.76953125 40.546875 C8.48236478 41.55266089 7.18964467 42.55134298 5.89453125 43.546875 C5.17523437 44.10375 4.4559375 44.660625 3.71484375 45.234375 C1.76953125 46.546875 1.76953125 46.546875 -0.23046875 46.546875 C-1.80626586 41.65679861 -3.37254483 36.76381312 -4.93017578 31.86791992 C-5.46111301 30.20367951 -5.99461756 28.54025583 -6.53076172 26.87768555 C-7.3020588 24.48437504 -8.06400014 22.08825535 -8.82421875 19.69140625 C-9.06483032 18.9516304 -9.30544189 18.21185455 -9.55334473 17.44966125 C-10.71784001 13.74644591 -11.71194954 10.43903138 -11.23046875 6.546875 C-9.4375 4.45703125 -9.4375 4.45703125 -7.04296875 2.609375 C-6.26566406 1.98160156 -5.48835937 1.35382812 -4.6875 0.70703125 C-2.23046875 -0.453125 -2.23046875 -0.453125 0 0 Z " fill="#FAFAFA" transform="translate(522.23046875,622.453125)"/>
<path d="M0 0 C6.41438333 0.04592637 11.34841807 1.61532043 16.5625 5.375 C19.19859305 8.26770387 19.54676991 9.06039814 19.75 13.125 C19.6571875 14.73375 19.6571875 14.73375 19.5625 16.375 C17.76746816 16.17388439 15.9762926 15.9381149 14.1875 15.6875 C13.18976563 15.55988281 12.19203125 15.43226563 11.1640625 15.30078125 C10.30554688 14.99527344 9.44703125 14.68976562 8.5625 14.375 C7.40625 11.84375 7.40625 11.84375 6.5625 9.375 C3.50977535 8.47669161 3.50977535 8.47669161 0.5625 8.375 C0.70827839 10.29522947 0.70827839 10.29522947 1.5625 12.375 C3.66318775 13.91954021 3.66318775 13.91954021 6.25 15.1875 C10.91262806 17.8671713 15.14295312 20.40484745 17.5625 25.375 C18.01304064 28.64705143 17.68016165 31.2723247 16.5625 34.375 C14.04356916 37.57472296 11.48629266 40.14180802 7.5625 41.375 C0.6797462 42.0995004 -5.26017981 40.48284432 -11.4375 37.375 C-14.15850968 35.029302 -15.29177774 33.81216678 -16.4375 30.375 C-16.47704234 28.04200175 -16.48151732 25.70791811 -16.4375 23.375 C-12.8075 23.705 -9.1775 24.035 -5.4375 24.375 C-5.1075 26.685 -4.7775 28.995 -4.4375 31.375 C-1.7975 31.705 0.8425 32.035 3.5625 32.375 C3.8925 30.725 4.2225 29.075 4.5625 27.375 C3.74265625 26.85550781 2.9228125 26.33601562 2.078125 25.80078125 C1.00046875 25.10339844 -0.0771875 24.40601563 -1.1875 23.6875 C-2.25484375 23.00300781 -3.3221875 22.31851563 -4.421875 21.61328125 C-7.89689814 19.03402185 -10.82657584 16.5996066 -12.00390625 12.3125 C-11.99552613 8.15595902 -11.77839135 6.78581778 -9 3.4375 C-8.154375 2.756875 -7.30875 2.07625 -6.4375 1.375 C-4.6879751 -0.3745249 -2.38218021 0.07890024 0 0 Z " fill="#F9F9F9" transform="translate(281.4375,676.625)"/>
<path d="M0 0 C2.4375 1 2.4375 1 4 2 C2.45380182 5.4789459 0.73954281 8.33449889 -2 11 C-5.625 11.1875 -5.625 11.1875 -9 11 C-9.66 11.66 -10.32 12.32 -11 13 C-11 14.32 -11 15.64 -11 17 C-7.16957565 15.9196239 -4.09441668 14.47194332 -0.75 12.375 C4.10610409 9.61883281 8.5011583 8.78123404 14 10 C17.34625024 12.52676039 18.67977847 14.03933542 20 18 C20.75940058 24.2921762 19.6642461 27.77157059 15.90234375 32.87890625 C12.28525799 36.91191974 8.21805486 40.30794519 2.8203125 41.46875 C-1.55904467 41.66706051 -4.53464371 40.59901722 -8 38 C-7.04663979 36.68388323 -6.08714226 35.37221039 -5.125 34.0625 C-4.59132813 33.33160156 -4.05765625 32.60070312 -3.5078125 31.84765625 C-2 30 -2 30 0 29 C0.969375 29.185625 1.93875 29.37125 2.9375 29.5625 C6.16588156 30.37098636 6.16588156 30.37098636 9 28 C9.2502157 24.91634129 9.2502157 24.91634129 9 22 C4.78322605 22.33290321 1.82983264 23.55097776 -1.8125 25.5625 C-6.576571 28.03435585 -10.67019318 29.2073644 -16 28 C-18.50160818 26.12379387 -19.61945652 24.76108697 -21 22 C-21.37400849 17.5118981 -21.48895954 14.99829239 -19.5 10.9375 C-13.72283365 4.14932954 -9.18939863 -0.47531372 0 0 Z " fill="#FAFAFA" transform="translate(556,596)"/>
<path d="M0 0 C2.9010221 0.10039967 4.08761099 0.35402568 6.6875 1.8125 C8.89929344 5.75526222 8.30144337 9.10576839 7.125 13.375 C5.35722186 16.51138057 3.65770033 18.84229967 1.125 21.375 C-2.69384318 21.79931591 -4.99905448 21.9140434 -8.3125 19.875 C-10.49470882 16.38346589 -10.62455294 13.32117579 -9.875 9.375 C-7.73668814 4.24904679 -5.77180794 0.55856206 0 0 Z " fill="#604186" transform="translate(230.875,668.625)"/>
<path d="M0 0 C2.31 0 4.62 0 7 0 C6.67 0.66 6.34 1.32 6 2 C4.68 2 3.36 2 2 2 C1.34 11.57 0.68 21.14 0 31 C-0.66 30.34 -1.32 29.68 -2 29 C-2.66 29.33 -3.32 29.66 -4 30 C-5 27 -5 27 -4.6875 24.25 C-5.14825877 19.45810881 -7.4270052 17.09752778 -11 14 C-13.59240676 12.36166149 -16.20367764 10.86894448 -18.92578125 9.45703125 C-21 8 -21 8 -21.79296875 5.82421875 C-21.86128906 5.22222656 -21.92960937 4.62023437 -22 4 C-18.95205066 3.06868215 -17.57949326 2.70242238 -14.6875 4.1875 C-13 6 -13 6 -13 10 C-9.7 10.33 -6.4 10.66 -3 11 C-2.67 9.02 -2.34 7.04 -2 5 C-1.67 5 -1.34 5 -1 5 C-0.67 3.35 -0.34 1.7 0 0 Z " fill="#67488E" transform="translate(303,681)"/>
<path d="M0 0 C0.48038431 5.40432346 0.48038431 5.40432346 -1.5625 7.9375 C-4.92596359 9.40362515 -7.41763245 8.51176679 -11 8 C-13.4212319 9.2910871 -13.4212319 9.2910871 -15 11 C-14.505 10.0409375 -14.505 10.0409375 -14 9.0625 C-12.92728775 7.23205433 -12.92728775 7.23205433 -13 6 C-13.66 5.67 -14.32 5.34 -15 5 C-13.4493684 3.96122737 -11.88390319 2.94457445 -10.3125 1.9375 C-9.44238281 1.36902344 -8.57226562 0.80054688 -7.67578125 0.21484375 C-4.57177563 -1.19442012 -3.1959424 -1.00772958 0 0 Z " fill="#5D4678" transform="translate(566,618)"/>
<path d="M0 0 C5.75 0.75 5.75 0.75 8 3 C8 4.32 8 5.64 8 7 C10.31 7.33 12.62 7.66 15 8 C14.01 8.66 13.02 9.32 12 10 C12.433125 10.42410156 12.86625 10.84820313 13.3125 11.28515625 C16.49671781 14.63890417 17.92225732 16.18370188 18.375 20.9375 C18.25125 21.948125 18.1275 22.95875 18 24 C17.67 24 17.34 24 17 24 C16.814375 22.80375 16.62875 21.6075 16.4375 20.375 C14.36834645 12.21333879 5.66509197 8.2620316 -1 4 C-0.67 2.68 -0.34 1.36 0 0 Z " fill="#554B5D" transform="translate(282,684)"/>
<path d="M0 0 C0.556875 0.45375 1.11375 0.9075 1.6875 1.375 C0.8125 6.25 0.8125 6.25 -0.3125 7.375 C-3.60088577 7.81937646 -4.90898169 7.6694593 -7.625 5.6875 C-9.59794288 2.98383753 -9.67587162 1.64534459 -9.3125 -1.625 C-10.3025 -1.955 -11.2925 -2.285 -12.3125 -2.625 C-7.16166629 -4.09666678 -4.30708309 -3.02659893 0 0 Z " fill="#5E467A" transform="translate(285.3125,702.625)"/>
<path d="M0 0 C6.09411765 2.14117647 6.09411765 2.14117647 8 5 C7.6875 7.6875 7.6875 7.6875 7 10 C5.234375 10.65234375 5.234375 10.65234375 3 11 C1.078125 10.00390625 1.078125 10.00390625 -0.75 8.5625 C-1.67039063 7.85287109 -1.67039063 7.85287109 -2.609375 7.12890625 C-3.06828125 6.75636719 -3.5271875 6.38382813 -4 6 C-2.68 4.02 -1.36 2.04 0 0 Z " fill="#594B66" transform="translate(164,626)"/>
<path d="M0 0 C0 0.99 0 1.98 0 3 C-1 4 -2 5 -3 6 C-3 6.99 -3 7.98 -3 9 C-4.43011973 9.86646667 -5.86940619 10.71781829 -7.3125 11.5625 C-8.51326172 12.27599609 -8.51326172 12.27599609 -9.73828125 13.00390625 C-12 14 -12 14 -15 13 C-14.25 8.25 -14.25 8.25 -12 6 C-8.375 6.375 -8.375 6.375 -5 7 C-4.731875 6.401875 -4.46375 5.80375 -4.1875 5.1875 C-3.01506533 3.02775192 -1.80630718 1.64209744 0 0 Z " fill="#5B4674" transform="translate(559,600)"/>
<path d="M0 0 C4.29 0 8.58 0 13 0 C13.33 1.32 13.66 2.64 14 4 C13.67 3.34 13.34 2.68 13 2 C9.04 2 5.08 2 1 2 C0.73445313 3.26457031 0.46890625 4.52914062 0.1953125 5.83203125 C-0.16112079 7.49226 -0.5179102 9.15241233 -0.875 10.8125 C-1.13603516 12.06256836 -1.13603516 12.06256836 -1.40234375 13.33789062 C-1.57636719 14.14033203 -1.75039063 14.94277344 -1.9296875 15.76953125 C-2.16534424 16.87711792 -2.16534424 16.87711792 -2.40576172 18.00708008 C-3 20 -3 20 -5 23 C-5.33 19.7 -5.66 16.4 -6 13 C-5.01 13.495 -5.01 13.495 -4 14 C-2.68 9.38 -1.36 4.76 0 0 Z " fill="#62566E" transform="translate(356,683)"/>
<path d="M0 0 C2.60045875 2.3024119 3.84739183 4.49896677 5.1875 7.6875 C5.53167969 8.49574219 5.87585938 9.30398438 6.23046875 10.13671875 C6.48441406 10.75160156 6.73835938 11.36648438 7 12 C4.36 12.33 1.72 12.66 -1 13 C-1.02696365 11.20841511 -1.04637917 9.41671527 -1.0625 7.625 C-1.07410156 6.62726562 -1.08570313 5.62953125 -1.09765625 4.6015625 C-1 2 -1 2 0 0 Z " fill="#5D4C71" transform="translate(406,690)"/>
<path d="M0 0 C2.31 0 4.62 0 7 0 C6.67 0.66 6.34 1.32 6 2 C4.68 2 3.36 2 2 2 C1.95101563 3.18078125 1.90203125 4.3615625 1.8515625 5.578125 C1.77651121 7.13543937 1.70096439 8.69272991 1.625 10.25 C1.5940625 11.02730469 1.563125 11.80460938 1.53125 12.60546875 C1.49257813 13.35957031 1.45390625 14.11367188 1.4140625 14.890625 C1.3826416 15.58188477 1.3512207 16.27314453 1.31884766 16.98535156 C1 19 1 19 -1 23 C-1 19.7 -1 16.4 -1 13 C-2.32 12.67 -3.64 12.34 -5 12 C-4.01 12 -3.02 12 -2 12 C-2 9.69 -2 7.38 -2 5 C-1.67 5 -1.34 5 -1 5 C-0.67 3.35 -0.34 1.7 0 0 Z " fill="#554A5F" transform="translate(303,681)"/>
<path d="M0 0 C4.04420651 1.77945087 7.46078487 4.39529673 11 7 C9.37660195 8.70884005 7.70680947 10.37446717 6 12 C5.34 12 4.68 12 4 12 C3.3291288 10.3767313 2.66342971 8.75132422 2 7.125 C1.62875 6.22007812 1.2575 5.31515625 0.875 4.3828125 C0 2 0 2 0 0 Z " fill="#5B417C" transform="translate(522,635)"/>
<path d="M0 0 C1.45047396 2.90094791 0.45356803 4.55972596 -0.4375 7.625 C-0.72496094 8.62789062 -1.01242188 9.63078125 -1.30859375 10.6640625 C-1.65083984 11.82035156 -1.65083984 11.82035156 -2 13 C-4.96175123 12.38722388 -6.38058783 11.74627478 -9 10 C-7.61811547 6.78956118 -6.07578097 4.95063635 -3.375 2.75 C-2.74335938 2.22921875 -2.11171875 1.7084375 -1.4609375 1.171875 C-0.73777344 0.59179688 -0.73777344 0.59179688 0 0 Z " fill="#534A5B" transform="translate(198,653)"/>
<path d="M0 0 C0.78375 0.66 1.5675 1.32 2.375 2 C6.61192232 4.89251428 11.06675416 4.35098192 16 4 C16 4.66 16 5.32 16 6 C11.98195309 6.84098656 8.98196457 7.05404945 5 6 C5.66 7.32 6.32 8.64 7 10 C2.22390502 8.35821735 -1.79382904 5.73453298 -6 3 C-5.34 2.67 -4.68 2.34 -4 2 C-1.875 2.9375 -1.875 2.9375 0 4 C-0.33 3.01 -0.66 2.02 -1 1 C-0.67 0.67 -0.34 0.34 0 0 Z " fill="#544466" transform="translate(547,632)"/>
<path d="M0 0 C0.33 0 0.66 0 1 0 C1.33 4.95 1.66 9.9 2 15 C-1.87555354 13.70814882 -5.60403536 12.40376945 -9.375 10.875 C-10.24898438 10.52179687 -11.12296875 10.16859375 -12.0234375 9.8046875 C-12.67570312 9.53914062 -13.32796875 9.27359375 -14 9 C-12.296875 7.8515625 -12.296875 7.8515625 -10 7 C-6.70921625 8.25311302 -4.01289791 10.13909247 -1 12 C-0.67 8.04 -0.34 4.08 0 0 Z " fill="#524362" transform="translate(493,640)"/>
<path d="M0 0 C1.875 0.25 1.875 0.25 4 1 C5.25 3.0625 5.25 3.0625 6 5 C3.6875 5.625 3.6875 5.625 1 6 C0.01 5.34 -0.98 4.68 -2 4 C-1.34 2.68 -0.68 1.36 0 0 Z " fill="#623C93" transform="translate(165,629)"/>
<path d="M0 0 C1.32435978 3.97307934 0.18129186 6.80974568 -0.9375 10.6875 C-1.13279297 11.38939453 -1.32808594 12.09128906 -1.52929688 12.81445312 C-2.01199136 14.54508944 -2.50500846 16.27284066 -3 18 C-3.33 18 -3.66 18 -4 18 C-4.33 14.7 -4.66 11.4 -5 8 C-4.01 8.495 -4.01 8.495 -3 9 C-2.01 6.03 -1.02 3.06 0 0 Z " fill="#51465C" transform="translate(355,688)"/>
<path d="M0 0 C2.375 -0.125 2.375 -0.125 5 0 C7 2 7 2 7.125 4.625 C7.08375 5.40875 7.0425 6.1925 7 7 C3.535 5.02 3.535 5.02 0 3 C0 2.01 0 1.02 0 0 Z " fill="#5D4180" transform="translate(282,686)"/>
<path d="M0 0 C3.04662882 2.56417147 4.20951098 5.40969231 5.6875 9.0625 C6.34298828 10.65771484 6.34298828 10.65771484 7.01171875 12.28515625 C8 15 8 15 8 17 C3.125 15.25 3.125 15.25 2 13 C2.66 13 3.32 13 4 13 C3.79503906 12.39671875 3.59007812 11.7934375 3.37890625 11.171875 C3.10949219 10.37265625 2.84007812 9.5734375 2.5625 8.75 C2.29566406 7.96109375 2.02882813 7.1721875 1.75390625 6.359375 C1.08045292 4.25178012 0.50849405 2.15246027 0 0 Z " fill="#544C5B" transform="translate(461,661)"/>
<path d="M0 0 C4.04420651 1.77945087 7.46078487 4.39529673 11 7 C10.67 7.66 10.34 8.32 10 9 C7.36443095 7.68221547 5.27730447 5.85780102 3 4 C2.67 4.99 2.34 5.98 2 7 C1.34 4.69 0.68 2.38 0 0 Z " fill="#554C5C" transform="translate(522,635)"/>
<path d="M0 0 C2.64 0.33 5.28 0.66 8 1 C8 1.33 8 1.66 8 2 C6.02 2 4.04 2 2 2 C2 4.64 2 7.28 2 10 C0 8 0 8 -0.1953125 6.0546875 C-0.13020833 4.03645833 -0.06510417 2.01822917 0 0 Z " fill="#60556B" transform="translate(263,698)"/>
<path d="M0 0 C5.94 2.475 5.94 2.475 12 5 C9 6 9 6 5.8125 4.5625 C4.884375 4.046875 3.95625 3.53125 3 3 C2.67 3.99 2.34 4.98 2 6 C1.34 4.02 0.68 2.04 0 0 Z " fill="#534A5C" transform="translate(473,657)"/>
<path d="M0 0 C2.64 1.65 5.28 3.3 8 5 C7.01 5.495 7.01 5.495 6 6 C5.34 5.67 4.68 5.34 4 5 C3.67 5.99 3.34 6.98 3 8 C0 2.25 0 2.25 0 0 Z " fill="#5C5263" transform="translate(455,681)"/>
<path d="M0 0 C0.66 0 1.32 0 2 0 C1.67 2.31 1.34 4.62 1 7 C-0.32 6.34 -1.64 5.68 -3 5 C-1.125 1.125 -1.125 1.125 0 0 Z " fill="#613C90" transform="translate(194,658)"/>
<path d="M0 0 C0 0.99 0 1.98 0 3 C-1 4 -2 5 -3 6 C-3 6.99 -3 7.98 -3 9 C-4.32 8.67 -5.64 8.34 -7 8 C-6.34 7.67 -5.68 7.34 -5 7 C-4.690625 6.38125 -4.38125 5.7625 -4.0625 5.125 C-2.97094732 2.94189465 -1.79288485 1.62989532 0 0 Z " fill="#524959" transform="translate(559,600)"/>
<path d="M0 0 C2.31 0 4.62 0 7 0 C6.67 0.66 6.34 1.32 6 2 C4.68 2 3.36 2 2 2 C1.67 3.32 1.34 4.64 1 6 C0.67 4.02 0.34 2.04 0 0 Z " fill="#695C78" transform="translate(303,681)"/>
</svg>
